HIERARCHY
ROOT joint_0
{
	OFFSET 0.000000 0.000000 0.000000
	CHANNELS 6 Xposition Yposition Zposition Zrotation Yrotation Xrotation 
	JOINT joint_1
	{
		OFFSET 8.185791 -2.713684 100.414917
		CHANNELS 3 Zrotation Yrotation Xrotation
		JOINT joint_2
		{
			OFFSET -4.376465 -1.111145 91.934082
			CHANNELS 3 Zrotation Yrotation Xrotation
			JOINT joint_3
			{
				OFFSET -6.985840 -1.054016 91.669922
				CHANNELS 3 Zrotation Yrotation Xrotation
				JOINT joint_4
				{
					OFFSET 0.150391 -4.451904 123.526001
					CHANNELS 3 Zrotation Yrotation Xrotation
					JOINT joint_5
					{
						OFFSET 19.754150 -8.123901 80.916992
						CHANNELS 3 Zrotation Yrotation Xrotation
						End Site
						{
							OFFSET 0.000000 0.000000 0.000000
						}
					}
				}
				JOINT joint_6
				{
					OFFSET -6.477539 -28.517334 68.237061
					CHANNELS 3 Zrotation Yrotation Xrotation
					JOINT joint_7
					{
						OFFSET -20.564453 -115.426208 -21.139038
						CHANNELS 3 Zrotation Yrotation Xrotation
						JOINT joint_8
						{
							OFFSET 18.981934 -19.826172 -267.898926
							CHANNELS 3 Zrotation Yrotation Xrotation
							JOINT joint_9
							{
								OFFSET 11.562744 -19.325867 -235.478027
								CHANNELS 3 Zrotation Yrotation Xrotation
								End Site
								{
									OFFSET 0.000000 0.000000 0.000000
								}
							}
						}
					}
				}
				JOINT joint_10
				{
					OFFSET 7.033936 23.504700 70.088989
					CHANNELS 3 Zrotation Yrotation Xrotation
					JOINT joint_11
					{
						OFFSET 36.629639 112.486816 -14.036987
						CHANNELS 3 Zrotation Yrotation Xrotation
						JOINT joint_12
						{
							OFFSET 41.355225 -7.048523 -266.019897
							CHANNELS 3 Zrotation Yrotation Xrotation
							JOINT joint_13
							{
								OFFSET 5.858887 29.785156 -234.603027
								CHANNELS 3 Zrotation Yrotation Xrotation
								End Site
								{
									OFFSET 0.000000 0.000000 0.000000
								}
							}
						}
					}
				}
			}
		}
	}
	JOINT joint_14
	{
		OFFSET -8.917725 -79.985535 -99.035034
		CHANNELS 3 Zrotation Yrotation Xrotation
		JOINT joint_15
		{
			OFFSET -32.739502 -31.478882 -502.570984
			CHANNELS 3 Zrotation Yrotation Xrotation
			JOINT joint_16
			{
				OFFSET 7.393066 -29.352966 -399.008011
				CHANNELS 3 Zrotation Yrotation Xrotation
				JOINT joint_17
				{
					OFFSET 178.013916 -26.060303 -71.875002
					CHANNELS 3 Zrotation Yrotation Xrotation
					End Site
					{
						OFFSET 0.000000 0.000000 0.000000
					}
				}
			}
		}
	}
	JOINT joint_18
	{
		OFFSET 1.900879 81.159851 -98.481018
		CHANNELS 3 Zrotation Yrotation Xrotation
		JOINT joint_19
		{
			OFFSET -15.120850 31.602051 -503.400024
			CHANNELS 3 Zrotation Yrotation Xrotation
			JOINT joint_20
			{
				OFFSET -16.653076 23.887695 -399.091988
				CHANNELS 3 Zrotation Yrotation Xrotation
				JOINT joint_21
				{
					OFFSET 179.618164 -1.217651 -72.592001
					CHANNELS 3 Zrotation Yrotation Xrotation
					End Site
					{
						OFFSET 0.000000 0.000000 0.000000
					}
				}
			}
		}
	}
}
MOTION
Frames: 16
Frame Time: 0.016667
-2832.284912 832.632202 1064.348999 -2.875937 9.844136 1.160166 3.109552 4.884920 0.615083 1.389447 -0.970788 0.081052 1.217900 0.908714 0.211487 -0.674855 -4.105495 0.382342 0.000000 0.000000 0.000000 -4.887042 12.280251 -1.524079 2.802587 10.797853 -4.184669 0.526621 -5.828144 -5.043745 0.000000 0.000000 0.000000 5.236011 1.496471 6.962162 -2.008997 4.390319 -3.200011 -2.195586 -12.373171 -9.411689 0.000000 0.000000 0.000000 0.023799 -48.424523 0.385359 -0.244634 57.695196 -2.663810 4.595621 -11.237491 -0.478041 0.000000 0.000000 0.000000 -0.348766 2.032014 -3.395981 0.657127 26.979390 1.883366 -1.011020 -1.585016 -0.161382 0.000000 0.000000 0.000000 
-2812.924072 828.532043 1058.545044 -2.141344 9.926922 1.402457 2.711687 4.945993 0.741576 1.344128 -0.952451 0.094620 1.266987 0.956643 0.206782 -0.687523 -4.156575 0.392073 0.000000 0.000000 0.000000 -4.913330 12.433766 -1.354324 2.893943 10.988202 -4.297701 0.509544 -5.632992 -4.951560 0.000000 0.000000 0.000000 4.627938 1.380645 7.068358 -1.990301 4.281365 -2.876150 -2.286738 -13.067967 -9.873639 0.000000 0.000000 0.000000 1.261237 -48.269635 -0.495765 0.695439 49.996973 -0.708784 6.488519 -11.348701 0.353316 0.000000 0.000000 0.000000 -0.694483 2.559051 -3.031164 0.347916 27.803409 1.520359 -1.589210 -1.128777 -0.330080 0.000000 0.000000 0.000000 
-2792.523682 824.083252 1051.807007 -1.199706 10.018255 1.654000 2.296907 4.756926 0.875774 1.332381 -0.892940 0.113648 1.328514 1.013654 0.174882 -0.691756 -4.089554 0.431704 0.000000 0.000000 0.000000 -5.024639 12.735686 -1.163644 3.019482 11.264893 -4.345549 0.503222 -5.509782 -4.779711 0.000000 0.000000 0.000000 3.929531 1.328204 7.130221 -1.911316 4.193654 -2.424762 -2.346338 -13.451608 -10.418148 0.000000 0.000000 0.000000 2.479417 -47.284000 -1.650752 1.717323 40.739162 1.797781 7.352881 -10.931521 0.818838 0.000000 0.000000 0.000000 -1.192877 3.124630 -2.521146 -0.069070 28.608580 1.034825 -2.321131 -0.665314 -0.543824 0.000000 0.000000 0.000000 
-2771.778320 819.344666 1044.041992 0.277121 9.731095 2.149166 1.865594 5.064519 0.826368 1.129150 -1.108791 0.178676 1.140400 1.071248 0.178023 -0.691462 -3.973317 0.486743 0.000000 0.000000 0.000000 -5.074428 13.106361 -1.026935 3.144200 11.551482 -4.272842 0.487093 -5.312079 -4.598837 0.000000 0.000000 0.000000 3.398757 1.355900 7.184847 -1.868425 4.175514 -1.984001 -2.417447 -13.759665 -10.921805 0.000000 0.000000 0.000000 3.213211 -45.919841 -2.754930 2.564409 33.459247 3.282899 7.577035 -8.991181 1.208533 0.000000 0.000000 0.000000 -1.951889 3.841671 -2.102046 -0.721517 29.827279 0.587925 -3.311345 -0.154794 -0.840767 0.000000 0.000000 0.000000 
-2750.742676 814.309265 1034.446045 1.687687 9.244687 2.759317 1.515475 5.342472 0.728108 0.895420 -1.244561 0.170094 0.930630 1.065699 0.222909 -0.683182 -3.796877 0.562586 0.000000 0.000000 0.000000 -4.933005 13.585712 -1.070471 3.290187 11.854187 -3.957877 0.448461 -4.938537 -4.441346 0.000000 0.000000 0.000000 3.311448 1.503915 7.295248 -1.938724 4.292030 -1.640863 -2.538243 -14.129804 -11.357659 0.000000 0.000000 0.000000 3.459092 -45.661411 -3.175278 3.052104 32.643697 2.993985 8.283014 -6.796480 1.777211 0.000000 0.000000 0.000000 -2.800096 4.571133 -1.790722 -1.478181 31.550020 0.101392 -4.484389 0.437410 -1.185873 0.000000 0.000000 0.000000 
-2729.143799 808.947998 1023.044983 2.798488 8.771500 3.327250 1.273252 5.175310 0.724897 0.751358 -1.100285 0.036884 0.845976 0.990685 0.281096 -0.666789 -3.535805 0.668453 0.000000 0.000000 0.000000 -4.651264 14.205468 -1.260171 3.473762 12.199373 -3.414807 0.396969 -4.447846 -4.265194 0.000000 0.000000 0.000000 3.573461 1.756492 7.466881 -2.099525 4.525669 -1.343930 -2.699799 -14.467900 -11.783258 0.000000 0.000000 0.000000 3.370621 -46.453927 -2.926478 3.144379 36.905818 1.770821 9.668822 -5.014530 2.513379 0.000000 0.000000 0.000000 -3.653021 5.238397 -1.449219 -2.260281 33.550871 -0.525400 -5.812200 1.184566 -1.571844 0.000000 0.000000 0.000000 
-2708.815918 803.511719 1013.181030 3.949078 8.314103 3.684489 1.091510 5.280606 0.834886 0.608400 -1.064573 -0.036381 0.747421 0.950476 0.370907 -0.658921 -3.417537 0.727335 0.000000 0.000000 0.000000 -4.415429 14.539454 -1.342201 3.532288 12.373549 -2.958437 0.331527 -3.862756 -4.103994 0.000000 0.000000 0.000000 3.747941 1.965604 7.594659 -2.316878 4.751134 -1.150901 -2.858202 -14.819733 -11.957972 0.000000 0.000000 0.000000 2.847559 -47.211717 -2.212237 2.725591 41.761618 0.281933 10.761153 -3.671308 3.060159 0.000000 0.000000 0.000000 -4.525048 5.158230 -0.912912 -2.924012 36.550049 -1.141603 -7.181213 1.913644 -1.992065 0.000000 0.000000 0.000000 
-2691.072754 797.936401 1007.208984 5.020271 8.148834 3.369333 1.037341 5.703959 1.521647 0.547508 -1.154281 -0.081806 0.714210 1.032172 0.500151 -0.666813 -3.648063 0.647988 0.000000 0.000000 0.000000 -4.406920 14.195872 -1.123493 3.316332 12.181040 -2.863991 0.232866 -3.062591 -3.977741 0.000000 0.000000 0.000000 3.452214 2.052514 7.584020 -2.570078 4.913991 -1.131524 -2.971226 -15.255399 -11.628848 0.000000 0.000000 0.000000 1.979259 -47.639692 -0.725115 1.740379 44.847863 -1.172502 10.679337 -3.909449 2.955383 0.000000 0.000000 0.000000 -5.380229 3.507908 0.231168 -3.249982 41.361293 -1.695530 -8.504854 2.651212 -2.442829 0.000000 0.000000 0.000000 
-2675.204590 792.119690 1003.854980 6.064087 8.224482 2.384317 1.050651 6.278351 3.019216 0.563960 -1.265141 -0.290531 0.776371 1.169267 0.656710 -0.680167 -4.142049 0.447317 0.000000 0.000000 0.000000 -4.576571 13.352803 -0.740823 2.890062 11.689086 -3.001326 0.098635 -2.037686 -3.873607 0.000000 0.000000 0.000000 2.849879 2.075103 7.480566 -2.875693 5.070255 -1.266054 -3.057102 -15.752714 -10.884212 0.000000 0.000000 0.000000 0.729019 -48.001450 1.640137 0.126837 47.688525 -2.827632 9.615483 -5.417717 2.303035 0.000000 0.000000 0.000000 -6.261259 0.675730 2.046515 -3.395946 47.482353 -2.131859 -9.911349 3.923828 -2.989948 0.000000 0.000000 0.000000 
-2660.846436 787.124573 1002.499023 7.082754 8.491459 1.464259 1.012947 6.797019 4.544686 0.633217 -1.369249 -0.559785 0.903900 1.247377 0.797048 -0.704692 -4.633341 0.292583 0.000000 0.000000 0.000000 -4.653501 12.485524 -0.457219 2.444026 11.164021 -3.075177 -0.001543 -1.344796 -3.871778 0.000000 0.000000 0.000000 2.402415 2.009918 7.294844 -3.171902 5.106210 -1.431920 -3.155028 -16.199303 -10.091038 0.000000 0.000000 0.000000 -0.349794 -48.252355 3.704293 -1.430543 49.832003 -4.279897 8.366804 -6.860123 1.595428 0.000000 0.000000 0.000000 -6.999927 -2.534460 3.799606 -3.428153 53.259734 -2.442785 -10.821398 5.315165 -3.275313 0.000000 0.000000 0.000000 
-2647.924561 783.833130 1002.943970 8.061860 9.053991 1.233579 0.861033 6.909002 5.346519 0.713585 -1.399169 -0.735011 1.043409 1.228861 0.906408 -0.756958 -4.954211 0.331315 0.000000 0.000000 0.000000 -4.388567 11.901779 -0.429137 2.103416 10.817694 -2.898232 -0.014369 -1.376903 -4.030743 0.000000 0.000000 0.000000 2.474619 1.830590 6.982531 -3.405874 4.907264 -1.559996 -3.286355 -16.498195 -9.458540 0.000000 0.000000 0.000000 -0.844165 -48.539495 4.546017 -2.421920 50.956534 -5.312276 7.579228 -7.511242 1.196144 0.000000 0.000000 0.000000 -7.524905 -5.921621 4.877573 -3.368123 58.003640 -2.875963 -10.642039 5.872874 -2.671273 0.000000 0.000000 0.000000 
-2636.559326 781.838562 1005.393005 8.966522 9.925687 1.377876 0.656251 6.676849 5.807335 0.818332 -1.332049 -0.901188 1.223510 1.134214 0.992877 -0.836035 -5.203721 0.502085 0.000000 0.000000 0.000000 -3.890538 11.438280 -0.584724 1.792653 10.548292 -2.567391 0.028065 -1.916190 -4.337059 0.000000 0.000000 0.000000 2.897747 1.554990 6.551463 -3.603137 4.529386 -1.718343 -3.437566 -16.700923 -8.856793 0.000000 0.000000 0.000000 -0.926292 -48.895685 4.661009 -3.101505 51.313133 -6.097896 6.977536 -7.941344 0.920183 0.000000 0.000000 0.000000 -7.904123 -9.782814 5.584696 -3.276805 62.335226 -3.492677 -9.694346 5.679208 -1.115947 0.000000 0.000000 0.000000 
-2626.145752 780.362305 1009.171021 9.652569 10.723198 1.569068 0.523026 6.577876 6.165106 0.996459 -1.280780 -1.053255 1.482020 1.049675 1.049193 -0.909980 -5.410453 0.676265 0.000000 0.000000 0.000000 -3.410184 10.988262 -0.823290 1.472845 10.266508 -2.216116 0.097855 -2.837942 -4.788883 0.000000 0.000000 0.000000 3.324104 1.251059 6.124957 -3.767071 4.089728 -1.793266 -3.617296 -16.992348 -8.488327 0.000000 0.000000 0.000000 -0.730008 -48.991428 4.520655 -3.562448 51.150134 -6.591507 6.498282 -8.140789 0.736640 0.000000 0.000000 0.000000 -8.084135 -13.532445 6.003104 -3.208594 66.119774 -3.956464 -8.678302 5.209222 0.731863 0.000000 0.000000 0.000000 
-2616.384033 778.850525 1014.015015 10.023485 11.178644 1.625109 0.506631 6.975543 6.479312 1.310443 -1.326320 -1.147831 1.872372 1.057283 1.083203 -0.953455 -5.601666 0.758457 0.000000 0.000000 0.000000 -3.111360 10.467575 -1.048573 1.119055 9.898275 -1.941429 0.172962 -4.122875 -5.444900 0.000000 0.000000 0.000000 3.521322 0.935725 5.757869 -3.872839 3.609177 -1.627031 -3.843377 -17.477217 -8.599311 0.000000 0.000000 0.000000 -0.332529 -48.571106 4.377549 -3.824563 50.561374 -6.725863 6.129575 -8.034338 0.647279 0.000000 0.000000 0.000000 -8.002271 -16.805386 6.124927 -3.100490 69.291994 -3.989184 -7.800137 4.737187 2.291185 0.000000 0.000000 0.000000 
-2607.512695 777.586304 1020.195007 10.162858 11.443534 1.666810 0.535914 7.677554 6.654672 1.739669 -1.414439 -1.177774 2.376733 1.125665 1.092809 -0.979044 -5.771168 0.800044 0.000000 0.000000 0.000000 -2.907486 9.911154 -1.274821 0.729607 9.475460 -1.723981 0.237900 -5.812620 -6.315334 0.000000 0.000000 0.000000 3.618496 0.578660 5.399699 -3.923015 3.037925 -1.268753 -4.116589 -18.072174 -9.113717 0.000000 0.000000 0.000000 0.295789 -47.760920 4.063198 -3.857343 49.457052 -6.531953 5.883886 -7.653550 0.653816 0.000000 0.000000 0.000000 -7.610636 -19.872353 5.896462 -2.865772 71.957172 -3.667681 -6.715777 4.075058 3.536313 0.000000 0.000000 0.000000 
-2599.027832 776.835571 1026.813965 10.148014 11.682045 1.688352 0.561861 8.325246 6.771662 2.185428 -1.488971 -1.189934 2.898097 1.179345 1.076830 -0.980288 -5.830071 0.823660 0.000000 0.000000 0.000000 -2.737680 9.412543 -1.520591 0.323802 9.086657 -1.624012 0.278062 -7.702481 -7.100755 0.000000 0.000000 0.000000 3.681718 0.262688 5.111276 -4.028229 2.563831 -1.006503 -4.398049 -18.759013 -9.524565 0.000000 0.000000 0.000000 1.045973 -46.824987 3.653656 -3.760857 48.088187 -6.135279 5.691721 -7.162183 0.698299 0.000000 0.000000 0.000000 -7.027895 -22.746025 5.456095 -2.587986 74.112300 -3.176960 -5.616305 3.402883 4.283819 0.000000 0.000000 0.000000 
